<?xml version="1.0" standalone="no"?>
<!DOCTYPE svg PUBLIC "-//W3C//DTD SVG 20010904//EN"
 "http://www.w3.org/TR/2001/REC-SVG-20010904/DTD/svg10.dtd">
<svg version="1.0" xmlns="http://www.w3.org/2000/svg"
 width="700.000000pt" height="700.000000pt" viewBox="0 0 700.000000 700.000000"
 preserveAspectRatio="xMidYMid meet">
<metadata>
Created by potrace 1.14, written by Peter Selinger 2001-2017
</metadata>
<g transform="translate(0.000000,700.000000) scale(0.100000,-0.100000)"
fill="#000000" stroke="none">
<path d="M478 6629 c-88 -13 -196 -87 -199 -137 -4 -69 14 -117 62 -159 42
-38 105 -59 239 -83 138 -24 235 -68 304 -136 51 -52 100 -144 112 -214 4 -25
8 -795 8 -1711 l1 -1667 -73 -17 c-167 -39 -286 -106 -399 -223 -65 -67 -74
-101 -40 -145 14 -18 42 -41 64 -50 30 -14 55 -42 118 -134 115 -168 115 -167
203 -198 42 -15 88 -31 102 -36 25 -9 26 -12 25 -97 l0 -87 -35 2 c-137 7
-372 3 -410 -7 -100 -26 -261 -88 -453 -175 l-107 -49 0 -653 0 -653 720 0
c677 0 721 1 727 18 8 19 10 207 3 291 -2 29 -9 74 -16 100 -6 25 -10 49 -8
52 2 3 99 54 216 111 165 82 228 108 282 117 77 13 137 40 159 71 19 28 308
124 437 146 14 3 36 6 50 9 50 9 138 15 270 20 161 5 261 29 444 107 126 53
149 60 331 108 104 27 174 45 403 106 53 14 165 43 247 65 171 45 211 57 350
107 111 39 128 49 121 69 -4 9 6 13 37 14 23 0 60 2 82 4 22 2 83 6 135 9 138
9 233 17 247 21 17 5 20 -12 16 -85 -12 -229 -52 -312 -171 -354 -46 -17 -160
-41 -232 -51 -101 -13 -127 -17 -175 -31 -63 -18 -69 -22 -89 -61 -37 -72 -8
-192 55 -230 70 -42 202 -52 394 -29 17 2 60 7 97 10 37 4 75 8 85 10 20 4
124 17 163 21 14 1 57 6 95 10 128 14 402 8 499 -11 12 -2 41 -6 66 -9 25 -3
54 -8 65 -10 11 -2 47 -7 80 -11 33 -3 83 -10 110 -14 28 -4 93 -7 145 -6 75
2 104 7 135 23 77 40 112 102 100 178 -14 94 -75 129 -331 189 -56 13 -127 36
-159 52 -141 66 -212 199 -220 411 l-4 93 40 10 c21 5 58 15 82 21 23 5 50 13
60 15 15 5 241 169 313 227 103 84 186 145 228 166 30 16 62 43 77 66 l27 39
-45 56 c-104 127 -268 213 -595 310 -71 21 -128 35 -128 32 0 -3 -5 -1 -11 5
-6 6 -13 31 -15 54 -4 45 -14 103 -22 129 -8 26 -9 3075 -1 3144 11 90 27 117
138 227 132 132 199 162 373 173 139 8 196 58 186 165 -6 62 -39 108 -94 132
-54 25 -126 26 -244 4 -132 -25 -209 -25 -445 2 -258 29 -375 -35 -528 -288
-25 -43 -57 -99 -70 -125 -13 -27 -58 -114 -99 -194 -42 -80 -114 -219 -161
-310 -115 -224 -201 -389 -252 -485 -23 -44 -79 -152 -125 -240 -45 -88 -99
-191 -120 -230 -40 -75 -138 -260 -178 -338 -19 -35 -29 -46 -41 -41 -191 78
-336 119 -448 128 -39 4 -78 9 -87 12 -21 8 -65 75 -71 109 -6 36 1 46 80 108
33 27 78 63 100 80 146 116 141 149 -39 244 -50 26 -124 72 -166 102 -143 103
-176 111 -262 66 -110 -56 -330 -242 -363 -305 -24 -46 15 -101 165 -232 l64
-57 -20 -28 c-12 -15 -28 -42 -37 -60 -13 -24 -26 -33 -50 -37 -17 -3 -68 -10
-112 -16 -113 -17 -317 -85 -436 -146 l-27 -13 -87 177 c-360 725 -872 1757
-919 1854 -142 291 -189 316 -464 247 -159 -40 -237 -41 -382 -5 -134 33 -213
43 -272 35z m4777 -2136 c0 -505 -3 -739 -10 -735 -5 3 -44 34 -85 67 -116 96
-264 203 -392 285 l-116 75 105 205 c58 113 162 315 231 450 113 223 142 277
183 351 8 13 25 36 39 52 22 25 25 26 34 10 6 -12 10 -287 11 -760z m-3819
560 c30 -41 97 -168 347 -665 l226 -448 -32 -22 c-37 -26 -57 -43 -192 -165
-134 -121 -309 -304 -380 -398 -13 -18 -14 74 -15 815 0 786 3 910 19 910 4 0
16 -12 27 -27z m2544 -3179 c0 -2 -9 -4 -21 -4 -11 0 -18 4 -14 10 5 8 35 3
35 -6z m90 1 c0 -1 -12 -2 -26 -2 -17 0 -22 2 -13 7 10 7 39 3 39 -5z m104 7
c3 -5 -1 -9 -9 -9 -8 0 -12 4 -9 9 3 4 7 8 9 8 2 0 6 -4 9 -8z m-361 -9 c-67
-2 -179 -2 -250 0 -70 1 -15 3 122 3 138 0 195 -2 128 -3z m-2330 -249 c17 -3
52 -8 77 -11 82 -10 56 -15 -55 -10 -129 6 -115 4 -115 22 0 15 3 15 93 -1z
m-483 -176 c0 -14 -9 -27 -23 -33 -12 -6 -94 -48 -182 -93 -143 -73 -156 -78
-120 -46 22 20 65 53 95 73 58 38 210 120 223 121 4 0 7 -10 7 -22z"/>
</g>
</svg>
